HIERARCHY
ROOT Hips
{
	OFFSET 0.000000 89.005402 0.000000
	CHANNELS 6 Xposition Yposition Zposition Xrotation Yrotation Zrotation
	JOINT Spine
	{
		OFFSET 0.116900 10.681000 0.373400
		CHANNELS 3 Xrotation Yrotation Zrotation
		JOINT Spine1
		{
			OFFSET 0.000000 13.840401 0.053500
			CHANNELS 3 Xrotation Yrotation Zrotation
			JOINT Spine2
			{
				OFFSET 0.000000 14.712700 -0.366200
				CHANNELS 3 Xrotation Yrotation Zrotation
				JOINT Neck
				{
					OFFSET 0.000000 35.415497 -3.314200
					CHANNELS 3 Xrotation Yrotation Zrotation
					JOINT Head
					{
						OFFSET 0.000000 16.899200 1.218300
						CHANNELS 3 Xrotation Yrotation Zrotation
						JOINT HeadTop_End
						{
							OFFSET 0.000000 22.206207 2.192500
							CHANNELS 3 Xrotation Yrotation Zrotation
							End Site
							{
								OFFSET 0.000000 22.314178 0.000000
							}
						}
					}
				}
				JOINT LeftShoulder
				{
					OFFSET 12.896400 26.716293 -4.548400
					CHANNELS 3 Xrotation Yrotation Zrotation
					JOINT LeftArm
					{
						OFFSET 19.027000 -4.857010 -1.718400
						CHANNELS 3 Xrotation Yrotation Zrotation
						JOINT LeftForeArm
						{
							OFFSET 24.179897 0.000000 0.000000
							CHANNELS 3 Xrotation Yrotation Zrotation
							JOINT LeftHand
							{
								OFFSET 27.156403 0.000000 0.000000
								CHANNELS 3 Xrotation Yrotation Zrotation
								JOINT LeftHandIndex1
								{
									OFFSET 16.441200 0.000000 0.000000
									CHANNELS 3 Xrotation Yrotation Zrotation
									JOINT LeftHandIndex2
									{
										OFFSET 4.821899 0.000000 0.000000
										CHANNELS 3 Xrotation Yrotation Zrotation
										JOINT LeftHandIndex3
										{
											OFFSET 6.386497 0.000000 0.000000
											CHANNELS 3 Xrotation Yrotation Zrotation
											JOINT LeftHandIndex4
											{
												OFFSET 5.188988 0.000000 0.000000
												CHANNELS 3 Xrotation Yrotation Zrotation
												End Site
												{
													OFFSET -0.178703 5.185913 0.000177
												}
											}
										}
									}
								}
								JOINT LeftHandThumb1
								{
									OFFSET 6.534897 -5.032593 5.900300
									CHANNELS 3 Xrotation Yrotation Zrotation
									JOINT LeftHandThumb2
									{
										OFFSET 3.818176 -2.204422 2.204423
										CHANNELS 3 Xrotation Yrotation Zrotation
										JOINT LeftHandThumb3
										{
											OFFSET 3.252098 -1.877594 1.877601
											CHANNELS 3 Xrotation Yrotation Zrotation
											JOINT LeftHandThumb4
											{
												OFFSET 5.251778 -3.032120 3.032117
												CHANNELS 3 Xrotation Yrotation Zrotation
												End Site
												{
													OFFSET 0.000023 6.780014 0.000000
												}
											}
										}
									}
								}
							}
						}
					}
				}
				JOINT RightShoulder
				{
					OFFSET -12.896300 26.716293 -4.548400
					CHANNELS 3 Xrotation Yrotation Zrotation
					JOINT RightArm
					{
						OFFSET -19.027000 -4.857010 -1.718400
						CHANNELS 3 Xrotation Yrotation Zrotation
						JOINT RightForeArm
						{
							OFFSET -24.179897 0.000000 0.000000
							CHANNELS 3 Xrotation Yrotation Zrotation
							JOINT RightHand
							{
								OFFSET -27.156403 0.000000 0.000000
								CHANNELS 3 Xrotation Yrotation Zrotation
								JOINT RightHandThumb1
								{
									OFFSET -6.591202 -4.852203 5.988100
									CHANNELS 3 Xrotation Yrotation Zrotation
									JOINT RightHandThumb2
									{
										OFFSET -3.818176 -2.204422 2.204423
										CHANNELS 3 Xrotation Yrotation Zrotation
										JOINT RightHandThumb3
										{
											OFFSET -3.252098 -1.877594 1.877601
											CHANNELS 3 Xrotation Yrotation Zrotation
											JOINT RightHandThumb4
											{
												OFFSET -5.251778 -3.032120 3.032117
												CHANNELS 3 Xrotation Yrotation Zrotation
												End Site
												{
													OFFSET -0.000023 6.780014 0.000000
												}
											}
										}
									}
								}
								JOINT RightHandIndex1
								{
									OFFSET -16.029404 0.000000 0.000000
									CHANNELS 3 Xrotation Yrotation Zrotation
									JOINT RightHandIndex2
									{
										OFFSET -5.213303 0.000000 0.000000
										CHANNELS 3 Xrotation Yrotation Zrotation
										JOINT RightHandIndex3
										{
											OFFSET -6.386528 0.000000 0.000000
											CHANNELS 3 Xrotation Yrotation Zrotation
											JOINT RightHandIndex4
											{
												OFFSET -5.189026 0.000000 0.000000
												CHANNELS 3 Xrotation Yrotation Zrotation
												End Site
												{
													OFFSET 0.236702 5.183624 0.001972
												}
											}
										}
									}
								}
							}
						}
					}
				}
			}
		}
	}
	JOINT LeftUpLeg
	{
		OFFSET 14.073000 -7.904099 -1.463000
		CHANNELS 3 Xrotation Yrotation Zrotation
		JOINT LeftLeg
		{
			OFFSET -0.109806 -34.073280 4.093200
			CHANNELS 3 Xrotation Yrotation Zrotation
			JOINT LeftFoot
			{
				OFFSET 0.109806 -29.899420 -6.319000
				CHANNELS 3 Xrotation Yrotation Zrotation
				JOINT LeftToeBase
				{
					OFFSET 1.551100 -14.988700 20.535801
					CHANNELS 3 Xrotation Yrotation Zrotation
					JOINT LeftToe_End
					{
						OFFSET 0.221200 0.570800 13.248301
						CHANNELS 3 Xrotation Yrotation Zrotation
						End Site
						{
							OFFSET 0.000000 13.262435 0.000000
						}
					}
				}
			}
		}
	}
	JOINT RightUpLeg
	{
		OFFSET -13.839300 -7.904099 -1.463000
		CHANNELS 3 Xrotation Yrotation Zrotation
		JOINT RightLeg
		{
			OFFSET 0.109694 -34.073219 4.093300
			CHANNELS 3 Xrotation Yrotation Zrotation
			JOINT RightFoot
			{
				OFFSET -0.109694 -29.899384 -6.319200
				CHANNELS 3 Xrotation Yrotation Zrotation
				JOINT RightToeBase
				{
					OFFSET -1.551100 -14.988700 20.535801
					CHANNELS 3 Xrotation Yrotation Zrotation
					JOINT RightToe_End
					{
						OFFSET -0.221200 0.570900 13.248299
						CHANNELS 3 Xrotation Yrotation Zrotation
						End Site
						{
							OFFSET 0.000000 13.262440 0.000000
						}
					}
				}
			}
		}
	}
}
MOTION
Frames: 8
Frame Time: 0.033333
-77.511299 83.998192 -2.463960 -2.189399 49.450027 2.767650 3.329950 15.960479 0.709481 0.213859 2.170417 -1.376544 0.259628 2.162078 -1.383254 2.966352 -11.662828 4.986885 21.508744 -55.689258 37.779163 -0.000000 -0.000000 0.000001 -0.169458 2.568502 5.387301 53.209349 -31.453861 -64.747748 -0.000002 -56.167490 -0.000002 37.445535 -4.013052 -16.889219 0.715989 3.062244 -26.314409 0.226835 1.756206 -14.718451 0.233932 1.782979 -14.948193 -0.000001 -0.000000 -0.000000 -1.540039 3.690187 6.142361 3.939050 7.948704 0.746795 -0.579465 1.575002 2.538718 -0.000001 -0.000000 -0.000000 1.709222 19.304367 1.641556 47.404863 49.459152 22.810139 -0.000056 66.011162 0.000046 22.491108 -6.087357 -1.799093 -13.072732 -12.221955 -13.977437 -5.548564 -23.256475 -2.086376 -1.273759 0.137317 -2.094871 0.000002 -0.000000 0.000001 0.053504 -0.862704 7.097743 0.008216 -0.338598 2.779505 0.193582 -1.632489 13.524415 0.000000 -0.000003 -0.000000 -21.594965 -4.066086 12.121410 9.401215 -9.460235 -9.531135 9.416398 -16.209127 -7.499005 -0.000024 -0.000000 0.000026 -0.000000 -0.000000 -0.000000 9.559767 -2.435463 -4.207361 17.792528 -1.781509 -2.280069 -24.270119 -15.150785 3.839256 -0.000289 -0.000008 0.000437 0.000000 -0.000001 0.000000 
-77.714279 83.959236 -2.264849 -1.584042 49.414069 2.215286 3.152871 14.631696 0.735762 0.708012 1.986161 -1.250224 0.745501 1.978024 -1.242459 1.495790 -11.125160 6.932692 10.924541 -53.001223 33.592079 -0.000001 -0.000000 0.000000 -0.273660 3.091080 5.674576 51.169178 -32.066075 -64.843685 -0.000002 -55.444580 0.000012 34.502434 -6.806689 -16.566663 0.991545 3.564781 -31.079020 0.393765 2.299288 -19.433442 0.312894 2.055927 -17.305355 0.000001 -0.000001 -0.000001 -1.540038 3.690184 6.142356 3.939053 7.948710 0.746799 -0.579465 1.575002 2.538716 -0.000000 -0.000000 -0.000000 1.694168 19.363293 1.582670 49.953234 50.120451 17.750724 0.000035 65.368790 -0.000041 19.952521 -6.779456 3.224174 -13.072808 -12.221979 -13.977423 -5.548646 -23.256550 -2.086428 -1.273758 0.137320 -2.094869 0.000001 -0.000002 0.000005 0.053497 -0.862633 7.097137 0.008208 -0.338506 2.778783 0.193568 -1.632449 13.524112 0.000000 -0.000002 0.000001 -22.004356 -3.209499 12.692053 8.943118 -9.334542 -9.824565 9.802816 -17.561183 -7.272784 -0.222066 -0.000007 0.000001 -0.000000 0.000002 0.000000 8.859995 -4.168818 -3.717512 18.019405 -2.145080 -3.212760 -24.138776 -13.715359 4.705426 -0.194570 0.000011 -0.000001 0.000000 0.000001 0.000000 
-77.897041 84.056351 -2.051630 -0.794482 48.405967 1.520585 2.596439 13.919733 1.017617 1.006400 1.885411 -1.309560 1.042861 1.877474 -1.292083 2.523822 -10.160592 7.634814 0.731217 -50.508849 26.164042 -0.000001 0.000000 -0.000000 -0.405634 3.788357 5.768912 50.529118 -31.675624 -63.481800 0.000035 -57.280138 0.000023 28.597435 -7.812431 -18.293690 1.149084 3.813438 -33.527107 0.529903 2.653446 -22.583372 0.371847 2.236249 -18.879589 -0.000001 0.000000 -0.000000 -1.540038 3.690183 6.142340 3.939047 7.948708 0.746821 -0.579466 1.575001 2.538715 -0.000001 0.000000 -0.000000 1.784510 19.781843 1.314824 53.641594 50.373065 12.373482 -0.000011 64.209154 -0.000000 17.536378 -8.081337 6.620037 -13.067773 -12.220702 -13.977908 -5.544318 -23.250654 -2.085647 -1.273760 0.137319 -2.094868 -0.000000 -0.000002 -0.000000 0.053572 -0.863247 7.102229 0.008277 -0.339985 2.790934 0.193648 -1.632760 13.526737 -0.000001 0.000000 -0.000000 -21.811282 -3.161708 13.205222 8.590446 -9.472250 -9.689128 9.641889 -15.635387 -7.218753 -0.233343 0.000010 -0.000000 -0.000000 -0.000000 0.000000 7.957609 -5.418138 -3.875257 17.905104 -1.815112 -3.259877 -23.881739 -11.857009 4.843295 -0.323416 -0.000013 -0.000003 0.000000 0.000002 -0.000000 
-78.065819 84.202248 -1.833015 -0.135992 47.018903 1.184503 1.772199 13.763485 1.329977 1.170347 1.859787 -1.560734 1.213065 1.852634 -1.536806 5.339942 -9.070046 6.676799 -5.880462 -47.584640 17.199070 -0.000000 0.000000 0.000001 -0.502312 4.291092 5.882742 50.808715 -30.384896 -61.565146 -0.000010 -59.789085 -0.000012 24.349863 -6.822839 -21.130577 1.228038 3.929739 -34.696432 0.607338 2.832264 -24.201541 0.404048 2.328202 -19.688097 -0.000000 0.000000 -0.000000 -1.540043 3.690184 6.142334 3.939055 7.948708 0.746838 -0.579465 1.575002 2.538716 -0.000000 0.000000 -0.000001 1.927453 20.649945 1.030535 56.819070 50.395943 8.400637 -0.000051 62.410061 0.000049 15.908957 -8.500536 7.620171 -13.066508 -12.220378 -13.978045 -5.543224 -23.249153 -2.085441 -1.273760 0.137317 -2.094865 0.000002 -0.000002 0.000002 0.053593 -0.863426 7.103672 0.008300 -0.340380 2.794171 0.193668 -1.632858 13.527510 0.000002 -0.000001 -0.000000 -22.117520 -3.126553 13.561826 9.463534 -9.850295 -9.660205 9.613659 -12.522692 -7.348379 -0.904507 -0.000009 0.000014 -0.000000 0.000002 -0.000000 6.996558 -5.501522 -4.466031 18.059502 -0.841741 -2.717339 -23.748192 -11.205032 4.303356 -0.351397 0.000009 -0.000001 0.000000 0.000001 0.000000 
-78.193848 84.303215 -1.556606 -0.005468 45.467726 1.461381 0.907738 13.657715 1.504177 1.418814 1.839953 -1.731589 1.465121 1.834480 -1.699221 8.331654 -7.973901 4.267752 -7.769449 -42.697001 7.819833 0.000000 -0.000000 0.000000 -0.572627 4.599965 6.112800 51.206242 -28.802703 -60.030526 -0.000014 -61.418359 -0.000007 24.070611 -5.796701 -22.368146 1.281117 4.005132 -35.463496 0.646090 2.916833 -24.974173 0.419869 2.371934 -20.074098 0.000000 0.000000 0.000000 -1.540037 3.690184 6.142355 3.939047 7.948707 0.746807 -0.579465 1.575001 2.538716 0.000000 -0.000000 -0.000000 2.001950 21.163777 0.807451 59.109003 51.271891 5.495633 -0.000045 60.072743 0.000043 14.758997 -7.761164 7.584390 -13.067841 -12.220719 -13.977910 -5.544377 -23.250722 -2.085661 -1.273760 0.137320 -2.094867 -0.000001 -0.000001 -0.000001 0.053576 -0.863264 7.102385 0.008283 -0.339987 2.790981 0.193651 -1.632769 13.526853 -0.000000 -0.000001 0.000000 -21.872704 -1.588406 13.744678 10.580594 -9.761332 -9.826172 8.356412 -10.731965 -5.818552 -0.623241 0.000025 -0.037944 0.000000 0.000000 0.000000 6.321513 -4.923580 -5.067491 18.621730 -0.038173 -2.423865 -23.906789 -11.032235 3.751249 -0.414039 -0.000009 0.000001 0.000000 -0.000001 -0.000000 
-78.241829 84.262215 -1.256977 -0.630298 43.672841 2.143683 0.404951 13.464377 2.007071 1.773999 1.808491 -1.887194 1.823796 1.802459 -1.844634 10.492117 -6.776080 1.493213 -5.756554 -35.067366 -1.297089 -0.000001 0.000001 -0.000001 -0.600007 4.625724 6.406919 51.416185 -27.472412 -59.188234 0.000011 -61.965430 0.000018 25.976114 -6.046683 -21.415862 1.321329 4.060849 -36.035238 0.672110 2.971992 -25.480769 0.430408 2.400545 -20.327164 -0.000000 -0.000001 0.000000 -1.540036 3.690182 6.142346 3.939048 7.948709 0.746800 -0.579466 1.575001 2.538717 -0.000000 -0.000000 -0.000000 1.966635 20.584215 0.609238 61.094000 53.548140 2.579473 0.000003 57.546325 0.000003 13.644282 -6.585534 8.245415 -13.068583 -12.220907 -13.977848 -5.545005 -23.251579 -2.085775 -1.273759 0.137319 -2.094871 -0.000000 -0.000002 -0.000001 0.053560 -0.863171 7.101574 0.008268 -0.339771 2.789188 0.193640 -1.632719 13.526402 0.000001 -0.000001 -0.000000 -21.320214 0.033268 14.293032 12.071585 -9.762816 -10.238823 6.884853 -9.997562 -4.731561 -1.550472 0.000001 -0.000001 -0.000000 -0.000000 0.000000 6.173659 -3.505704 -5.431819 19.614724 0.085486 -2.419934 -24.351636 -10.779516 3.556870 -0.447810 0.000026 0.000000 0.000000 -0.000003 -0.000000 
-78.253250 83.987366 -1.053930 -1.806355 42.020311 2.913341 0.700363 13.563026 3.179425 2.008967 1.819632 -2.333011 2.074324 1.806727 -2.284825 11.569973 -5.333749 -0.489436 -1.143369 -25.348154 -8.980760 0.000000 -0.000000 -0.000000 -0.532363 4.148501 6.664499 51.553957 -26.515329 -58.858930 0.000006 -62.234676 0.000005 27.037937 -6.585692 -20.120778 1.338078 4.083725 -36.271160 0.691830 3.012954 -25.858408 0.438346 2.421843 -20.515805 0.000000 0.000001 -0.000000 -1.540041 3.690186 6.142350 3.939051 7.948709 0.746825 -0.579468 1.575002 2.538716 -0.000000 0.000000 -0.000000 1.830259 18.479217 0.383121 63.380597 57.081004 -0.827949 -0.000001 55.227229 0.000021 12.584286 -5.795745 9.909929 -13.068311 -12.220832 -13.977877 -5.544769 -23.251275 -2.085725 -1.273760 0.137317 -2.094870 -0.000001 0.000000 -0.000001 0.053565 -0.863201 7.101785 0.008274 -0.339845 2.789789 0.193640 -1.632737 13.526576 0.000000 -0.000001 -0.000001 -20.246385 0.024376 15.188964 12.822557 -9.678092 -10.763856 5.792635 -10.277513 -5.645494 -2.516281 0.000009 -0.000001 0.000000 0.000000 -0.000000 6.314131 -1.274832 -5.530062 21.400222 0.535578 -2.076348 -25.389142 -11.543502 2.869371 -0.449412 -0.000033 0.000001 0.000000 -0.000002 0.000000 
-78.224426 83.360260 -0.967509 -3.038174 40.551851 3.629244 1.860119 14.300470 4.482884 1.934484 1.923048 -3.014568 2.027326 1.898173 -2.970333 11.512280 -3.587658 -1.337442 5.199482 -14.922386 -14.042456 0.000000 0.000001 0.000000 -0.360072 3.160983 6.817565 51.663343 -25.820629 -58.894802 0.000036 -63.034402 0.000042 26.017353 -5.888240 -20.653398 1.333128 4.076984 -36.201522 0.700052 3.029838 -26.014435 0.441647 2.430632 -20.593727 -0.000001 0.000000 -0.000000 -1.540040 3.690184 6.142353 3.939050 7.948706 0.746805 -0.579466 1.575001 2.538716 -0.000001 0.000000 -0.000000 1.562825 14.824446 0.148451 66.180913 61.293578 -4.510280 -0.000030 53.539237 0.000016 11.981957 -5.840247 11.598914 -13.068035 -12.220760 -13.977918 -5.544536 -23.250946 -2.085677 -1.273764 0.137317 -2.094870 -0.000000 0.000001 0.000001 0.053568 -0.863236 7.102115 0.008277 -0.339928 2.790464 0.193649 -1.632751 13.526700 -0.000000 -0.000000 -0.000001 -19.716806 -1.085097 15.761404 15.056764 -9.849836 -10.747553 3.609119 -10.034859 -7.110948 -2.183350 0.000012 0.000004 -0.000000 -0.000000 0.000000 5.867816 0.960049 -5.630646 24.874446 2.455780 -1.229482 -27.651138 -13.507969 0.932930 -0.490627 -0.000022 0.000003 -0.000000 -0.000003 -0.000000 
